<mxfile host="www.draw.io" modified="2020-01-31T11:46:24.346Z" agent="Mozilla/5.0 (Macintosh; Intel Mac OS X 10.14; rv:72.0) Gecko/20100101 Firefox/72.0" etag="JfEjI3JLkiEEt-ne8MS-" version="12.6.2" type="github">
  <diagram id="gXVJwv-4Ci32ZzdQIILx" name="Page-1">
    <mxGraphModel dx="806" dy="695" grid="1" gridSize="10" guides="1" tooltips="1" connect="1" arrows="1" fold="1" page="1" pageScale="1" pageWidth="1169" pageHeight="827" math="0" shadow="0">
      <root>
        <mxCell id="0"/>
        <mxCell id="1" parent="0"/>
        <mxCell id="Qoe-SQ4cBOux36FsEiMv-2" value="" style="aspect=fixed;perimeter=ellipsePerimeter;html=1;align=center;shadow=0;dashed=0;spacingTop=3;image;image=img/lib/active_directory/database_cube.svg;" parent="1" vertex="1">
          <mxGeometry x="340" y="260" width="81" height="90" as="geometry"/>
        </mxCell>
        <mxCell id="Qoe-SQ4cBOux36FsEiMv-100" style="edgeStyle=orthogonalEdgeStyle;shape=arrow;rounded=0;orthogonalLoop=1;jettySize=auto;html=1;strokeColor=#007FFF;strokeWidth=2;fillColor=#007FFF;" parent="1" edge="1">
          <mxGeometry relative="1" as="geometry">
            <mxPoint x="400" y="390" as="sourcePoint"/>
            <mxPoint x="400" y="460" as="targetPoint"/>
          </mxGeometry>
        </mxCell>
        <mxCell id="Qoe-SQ4cBOux36FsEiMv-3" value="DATA WAREHOUSE" style="text;html=1;strokeColor=none;fillColor=none;align=center;verticalAlign=middle;whiteSpace=wrap;rounded=0;fontStyle=1" parent="1" vertex="1">
          <mxGeometry x="360.5" y="360" width="40" height="20" as="geometry"/>
        </mxCell>
        <mxCell id="Qoe-SQ4cBOux36FsEiMv-58" value="" style="aspect=fixed;pointerEvents=1;shadow=0;dashed=0;html=1;strokeColor=none;labelPosition=center;verticalLabelPosition=bottom;verticalAlign=top;align=center;fillColor=#00188D;shape=mxgraph.mscae.enterprise.calendar" parent="1" vertex="1">
          <mxGeometry x="355.5" y="120" width="50" height="41" as="geometry"/>
        </mxCell>
        <mxCell id="Qoe-SQ4cBOux36FsEiMv-59" value="DIMENSIÓN TEMPORAL" style="text;html=1;strokeColor=none;fillColor=none;align=center;verticalAlign=middle;whiteSpace=wrap;rounded=0;fontStyle=1" parent="1" vertex="1">
          <mxGeometry x="360.5" y="170" width="40" height="20" as="geometry"/>
        </mxCell>
        <mxCell id="Qoe-SQ4cBOux36FsEiMv-60" value="" style="endArrow=classic;html=1;strokeWidth=2;" parent="1" edge="1">
          <mxGeometry width="50" height="50" relative="1" as="geometry">
            <mxPoint x="380" y="200" as="sourcePoint"/>
            <mxPoint x="380" y="260" as="targetPoint"/>
          </mxGeometry>
        </mxCell>
        <mxCell id="Qoe-SQ4cBOux36FsEiMv-72" value="" style="aspect=fixed;pointerEvents=1;shadow=0;dashed=0;html=1;strokeColor=none;labelPosition=center;verticalLabelPosition=bottom;verticalAlign=top;align=center;fillColor=#CC0000;shape=mxgraph.mscae.enterprise.app_generic" parent="1" vertex="1">
          <mxGeometry x="50" y="311" width="50" height="39" as="geometry"/>
        </mxCell>
        <mxCell id="Qoe-SQ4cBOux36FsEiMv-78" style="edgeStyle=orthogonalEdgeStyle;rounded=0;orthogonalLoop=1;jettySize=auto;html=1;entryX=0;entryY=0.25;entryDx=0;entryDy=0;strokeWidth=2;shape=arrow;exitX=1;exitY=0.5;exitDx=0;exitDy=0;exitPerimeter=0;strokeColor=#007FFF;" parent="1" source="Qoe-SQ4cBOux36FsEiMv-76" target="Qoe-SQ4cBOux36FsEiMv-2" edge="1">
          <mxGeometry relative="1" as="geometry">
            <mxPoint x="230" y="250" as="sourcePoint"/>
          </mxGeometry>
        </mxCell>
        <mxCell id="Qoe-SQ4cBOux36FsEiMv-73" value="" style="aspect=fixed;pointerEvents=1;shadow=0;dashed=0;html=1;strokeColor=none;labelPosition=center;verticalLabelPosition=bottom;verticalAlign=top;align=center;fillColor=#0000CC;shape=mxgraph.mscae.enterprise.app_generic" parent="1" vertex="1">
          <mxGeometry x="60" y="200" width="50" height="39" as="geometry"/>
        </mxCell>
        <mxCell id="Qoe-SQ4cBOux36FsEiMv-74" value="" style="aspect=fixed;pointerEvents=1;shadow=0;dashed=0;html=1;strokeColor=none;labelPosition=center;verticalLabelPosition=bottom;verticalAlign=top;align=center;fillColor=#00CC00;shape=mxgraph.mscae.enterprise.app_generic" parent="1" vertex="1">
          <mxGeometry x="60" y="420" width="50" height="39" as="geometry"/>
        </mxCell>
        <mxCell id="Qoe-SQ4cBOux36FsEiMv-76" value="" style="strokeWidth=2;html=1;shape=mxgraph.flowchart.database;whiteSpace=wrap;fillColor=none;fontSize=14;strokeColor=#0000CC;" parent="1" vertex="1">
          <mxGeometry x="160" y="220" width="40" height="40" as="geometry"/>
        </mxCell>
        <mxCell id="Qoe-SQ4cBOux36FsEiMv-84" style="edgeStyle=orthogonalEdgeStyle;shape=arrow;rounded=0;orthogonalLoop=1;jettySize=auto;html=1;exitX=1;exitY=0.5;exitDx=0;exitDy=0;exitPerimeter=0;strokeColor=#007FFF;strokeWidth=2;" parent="1" source="Qoe-SQ4cBOux36FsEiMv-79" target="Qoe-SQ4cBOux36FsEiMv-2" edge="1">
          <mxGeometry relative="1" as="geometry"/>
        </mxCell>
        <mxCell id="Qoe-SQ4cBOux36FsEiMv-79" value="" style="strokeWidth=2;html=1;shape=mxgraph.flowchart.database;whiteSpace=wrap;fillColor=none;fontSize=14;strokeColor=#CC0000;" parent="1" vertex="1">
          <mxGeometry x="160" y="310" width="40" height="40" as="geometry"/>
        </mxCell>
        <mxCell id="Qoe-SQ4cBOux36FsEiMv-80" value="" style="endArrow=none;html=1;strokeWidth=2;entryX=1;entryY=0.5;entryDx=0;entryDy=0;entryPerimeter=0;exitX=0;exitY=0.5;exitDx=0;exitDy=0;exitPerimeter=0;strokeColor=#0000CC;" parent="1" source="Qoe-SQ4cBOux36FsEiMv-76" target="Qoe-SQ4cBOux36FsEiMv-73" edge="1">
          <mxGeometry width="50" height="50" relative="1" as="geometry">
            <mxPoint x="50" y="530" as="sourcePoint"/>
            <mxPoint x="100" y="480" as="targetPoint"/>
          </mxGeometry>
        </mxCell>
        <mxCell id="Qoe-SQ4cBOux36FsEiMv-81" value="" style="endArrow=none;html=1;strokeWidth=2;entryX=1;entryY=0.5;entryDx=0;entryDy=0;entryPerimeter=0;exitX=0;exitY=0.5;exitDx=0;exitDy=0;exitPerimeter=0;strokeColor=#CC0000;" parent="1" source="Qoe-SQ4cBOux36FsEiMv-79" target="Qoe-SQ4cBOux36FsEiMv-72" edge="1">
          <mxGeometry width="50" height="50" relative="1" as="geometry">
            <mxPoint x="170" y="250" as="sourcePoint"/>
            <mxPoint x="120" y="229.5" as="targetPoint"/>
          </mxGeometry>
        </mxCell>
        <mxCell id="Qoe-SQ4cBOux36FsEiMv-85" style="edgeStyle=orthogonalEdgeStyle;shape=arrow;rounded=0;orthogonalLoop=1;jettySize=auto;html=1;exitX=1;exitY=0.5;exitDx=0;exitDy=0;exitPerimeter=0;entryX=0;entryY=0.75;entryDx=0;entryDy=0;strokeColor=#007FFF;strokeWidth=2;" parent="1" source="Qoe-SQ4cBOux36FsEiMv-82" target="Qoe-SQ4cBOux36FsEiMv-2" edge="1">
          <mxGeometry relative="1" as="geometry"/>
        </mxCell>
        <mxCell id="Qoe-SQ4cBOux36FsEiMv-82" value="" style="strokeWidth=2;html=1;shape=mxgraph.flowchart.database;whiteSpace=wrap;fillColor=none;fontSize=14;strokeColor=#00CC00;" parent="1" vertex="1">
          <mxGeometry x="170" y="400" width="40" height="40" as="geometry"/>
        </mxCell>
        <mxCell id="Qoe-SQ4cBOux36FsEiMv-83" value="" style="endArrow=none;html=1;strokeWidth=2;entryX=1;entryY=0.5;entryDx=0;entryDy=0;entryPerimeter=0;exitX=0;exitY=0.5;exitDx=0;exitDy=0;exitPerimeter=0;strokeColor=#00CC00;" parent="1" source="Qoe-SQ4cBOux36FsEiMv-82" target="Qoe-SQ4cBOux36FsEiMv-74" edge="1">
          <mxGeometry width="50" height="50" relative="1" as="geometry">
            <mxPoint x="180" y="260" as="sourcePoint"/>
            <mxPoint x="110" y="340.5" as="targetPoint"/>
          </mxGeometry>
        </mxCell>
        <mxCell id="Qoe-SQ4cBOux36FsEiMv-88" value="" style="group;rotation=20;" parent="1" vertex="1" connectable="0">
          <mxGeometry x="230" y="170" width="110" height="78" as="geometry"/>
        </mxCell>
        <mxCell id="Qoe-SQ4cBOux36FsEiMv-86" value="" style="shape=image;html=1;verticalAlign=top;verticalLabelPosition=bottom;labelBackgroundColor=#ffffff;imageAspect=0;aspect=fixed;image=https://cdn4.iconfinder.com/data/icons/LUMINIGHT/business/png/128/filter_data.png;fillColor=#CC0000;rotation=-71;strokeColor=#00CC00;" parent="Qoe-SQ4cBOux36FsEiMv-88" vertex="1">
          <mxGeometry x="-9" y="50" width="78" height="78" as="geometry"/>
        </mxCell>
        <mxCell id="Qoe-SQ4cBOux36FsEiMv-102" value="&lt;div&gt;- EXTRACCIÓN&lt;/div&gt;&lt;div&gt;- TRANSFORMACIÓN&lt;/div&gt;&lt;div&gt;- CARGA&lt;br&gt;&lt;/div&gt;" style="text;html=1;strokeColor=none;fillColor=none;align=left;verticalAlign=middle;whiteSpace=wrap;rounded=0;fontStyle=1" parent="Qoe-SQ4cBOux36FsEiMv-88" vertex="1">
          <mxGeometry x="-20" y="29" width="130" height="20" as="geometry"/>
        </mxCell>
        <mxCell id="Qoe-SQ4cBOux36FsEiMv-89" value="" style="group;rotation=-35;" parent="1" vertex="1" connectable="0">
          <mxGeometry x="230" y="340" width="78" height="78" as="geometry"/>
        </mxCell>
        <mxCell id="Qoe-SQ4cBOux36FsEiMv-90" value="" style="shape=image;html=1;verticalAlign=top;verticalLabelPosition=bottom;labelBackgroundColor=#ffffff;imageAspect=0;aspect=fixed;image=https://cdn4.iconfinder.com/data/icons/LUMINIGHT/business/png/128/filter_data.png;fillColor=#CC0000;rotation=-126;strokeColor=#00CC00;" parent="Qoe-SQ4cBOux36FsEiMv-89" vertex="1">
          <mxGeometry width="78" height="78" as="geometry"/>
        </mxCell>
        <mxCell id="Qoe-SQ4cBOux36FsEiMv-91" value="&lt;font style=&quot;font-size: 14px&quot;&gt;&lt;b&gt;ETL&lt;/b&gt;&lt;/font&gt;" style="text;html=1;strokeColor=none;fillColor=none;align=center;verticalAlign=middle;whiteSpace=wrap;rounded=0;rotation=-35;" parent="Qoe-SQ4cBOux36FsEiMv-89" vertex="1">
          <mxGeometry x="14" y="38" width="40" height="20" as="geometry"/>
        </mxCell>
        <mxCell id="Qoe-SQ4cBOux36FsEiMv-92" value="" style="group;rotation=-10;" parent="1" vertex="1" connectable="0">
          <mxGeometry x="220" y="280" width="78" height="78" as="geometry"/>
        </mxCell>
        <mxCell id="Qoe-SQ4cBOux36FsEiMv-93" value="" style="shape=image;html=1;verticalAlign=top;verticalLabelPosition=bottom;labelBackgroundColor=#ffffff;imageAspect=0;aspect=fixed;image=https://cdn4.iconfinder.com/data/icons/LUMINIGHT/business/png/128/filter_data.png;fillColor=#CC0000;rotation=-101;strokeColor=#00CC00;" parent="Qoe-SQ4cBOux36FsEiMv-92" vertex="1">
          <mxGeometry width="78" height="78" as="geometry"/>
        </mxCell>
        <mxCell id="Qoe-SQ4cBOux36FsEiMv-94" value="&lt;font style=&quot;font-size: 14px&quot;&gt;&lt;b&gt;ETL&lt;/b&gt;&lt;/font&gt;" style="text;html=1;strokeColor=none;fillColor=none;align=center;verticalAlign=middle;whiteSpace=wrap;rounded=0;rotation=-10;" parent="Qoe-SQ4cBOux36FsEiMv-92" vertex="1">
          <mxGeometry x="11" y="34" width="40" height="20" as="geometry"/>
        </mxCell>
        <mxCell id="Qoe-SQ4cBOux36FsEiMv-87" value="&lt;font style=&quot;font-size: 14px&quot;&gt;&lt;b&gt;ETL&lt;/b&gt;&lt;/font&gt;" style="text;html=1;strokeColor=none;fillColor=none;align=center;verticalAlign=middle;whiteSpace=wrap;rounded=0;rotation=20;" parent="1" vertex="1">
          <mxGeometry x="229" y="248" width="40" height="20" as="geometry"/>
        </mxCell>
        <mxCell id="Qoe-SQ4cBOux36FsEiMv-97" value="&lt;div&gt;BBDD DE LAS APLICACIONES DE NEGOCIO&lt;br&gt;&lt;/div&gt;" style="text;html=1;strokeColor=none;fillColor=none;align=center;verticalAlign=middle;whiteSpace=wrap;rounded=0;fontStyle=1" parent="1" vertex="1">
          <mxGeometry x="130" y="459" width="120" height="20" as="geometry"/>
        </mxCell>
        <mxCell id="Qoe-SQ4cBOux36FsEiMv-98" value="" style="verticalLabelPosition=bottom;aspect=fixed;html=1;verticalAlign=top;strokeColor=none;align=center;outlineConnect=0;shape=mxgraph.citrix.reporting;fillColor=#00CC00;" parent="1" vertex="1">
          <mxGeometry x="410" y="460" width="61.5" height="69" as="geometry"/>
        </mxCell>
        <mxCell id="Qoe-SQ4cBOux36FsEiMv-99" value="" style="verticalLabelPosition=bottom;html=1;verticalAlign=top;align=center;strokeColor=none;fillColor=#000000;shape=mxgraph.azure.user;fontSize=47;fontColor=#000000;" parent="1" vertex="1">
          <mxGeometry x="350.5" y="472.5" width="50" height="44" as="geometry"/>
        </mxCell>
        <mxCell id="Qoe-SQ4cBOux36FsEiMv-101" value="CUADRO DE MANDOS EJECUTIVO" style="text;html=1;strokeColor=none;fillColor=none;align=center;verticalAlign=middle;whiteSpace=wrap;rounded=0;fontStyle=1" parent="1" vertex="1">
          <mxGeometry x="358" y="540" width="85" height="20" as="geometry"/>
        </mxCell>
        <mxCell id="Qoe-SQ4cBOux36FsEiMv-105" value="" style="shape=image;html=1;verticalAlign=top;verticalLabelPosition=bottom;labelBackgroundColor=#ffffff;imageAspect=0;aspect=fixed;image=https://cdn3.iconfinder.com/data/icons/linecons-free-vector-icons-pack/32/data-128.png;strokeColor=#4C0099;strokeWidth=4;fillColor=none;align=left;" parent="1" vertex="1">
          <mxGeometry x="550" y="238" width="40" height="40" as="geometry"/>
        </mxCell>
        <mxCell id="Qoe-SQ4cBOux36FsEiMv-106" value="" style="shape=image;html=1;verticalAlign=top;verticalLabelPosition=bottom;labelBackgroundColor=#ffffff;imageAspect=0;aspect=fixed;image=https://cdn3.iconfinder.com/data/icons/linecons-free-vector-icons-pack/32/data-128.png;strokeColor=#4C0099;strokeWidth=4;fillColor=none;align=left;" parent="1" vertex="1">
          <mxGeometry x="550" y="305" width="40" height="40" as="geometry"/>
        </mxCell>
        <mxCell id="Qoe-SQ4cBOux36FsEiMv-107" value="" style="shape=image;html=1;verticalAlign=top;verticalLabelPosition=bottom;labelBackgroundColor=#ffffff;imageAspect=0;aspect=fixed;image=https://cdn3.iconfinder.com/data/icons/linecons-free-vector-icons-pack/32/data-128.png;strokeColor=#4C0099;strokeWidth=4;fillColor=none;align=left;" parent="1" vertex="1">
          <mxGeometry x="554" y="365" width="40" height="40" as="geometry"/>
        </mxCell>
        <mxCell id="Qoe-SQ4cBOux36FsEiMv-108" value="" style="shape=image;html=1;verticalAlign=top;verticalLabelPosition=bottom;labelBackgroundColor=#ffffff;imageAspect=0;aspect=fixed;image=https://cdn4.iconfinder.com/data/icons/infographics-chart-3/512/11-128.png;strokeWidth=4;fillColor=#67FF4E;fontSize=15;align=left;" parent="1" vertex="1">
          <mxGeometry x="624" y="360" width="50" height="50" as="geometry"/>
        </mxCell>
        <mxCell id="Qoe-SQ4cBOux36FsEiMv-109" value="" style="shape=image;html=1;verticalAlign=top;verticalLabelPosition=bottom;labelBackgroundColor=#ffffff;imageAspect=0;aspect=fixed;image=https://cdn4.iconfinder.com/data/icons/infographics-chart-3/512/4-128.png;strokeWidth=4;fillColor=#67FF4E;fontSize=15;align=left;" parent="1" vertex="1">
          <mxGeometry x="620" y="220" width="50" height="50" as="geometry"/>
        </mxCell>
        <mxCell id="Qoe-SQ4cBOux36FsEiMv-110" value="" style="shape=image;html=1;verticalAlign=top;verticalLabelPosition=bottom;labelBackgroundColor=#ffffff;imageAspect=0;aspect=fixed;image=https://cdn3.iconfinder.com/data/icons/chart-diagram/64/report_sales_comparison-128.png;strokeWidth=4;fillColor=#67FF4E;fontSize=15;align=left;" parent="1" vertex="1">
          <mxGeometry x="620" y="296" width="54" height="54" as="geometry"/>
        </mxCell>
        <mxCell id="Qoe-SQ4cBOux36FsEiMv-111" value="&lt;div&gt;ANÁLISIS E&lt;/div&gt;&lt;div&gt;INFORMES &lt;br&gt;&lt;/div&gt;&lt;div&gt;ESTÁTICOS POR&lt;/div&gt;&lt;div&gt;ÁREAS&lt;/div&gt;&lt;div&gt;DE NEGOCIO&lt;br&gt;&lt;/div&gt;" style="text;html=1;strokeColor=none;fillColor=none;align=center;verticalAlign=middle;whiteSpace=wrap;rounded=0;fontStyle=1" parent="1" vertex="1">
          <mxGeometry x="660" y="310" width="120" height="20" as="geometry"/>
        </mxCell>
        <mxCell id="Qoe-SQ4cBOux36FsEiMv-112" value="&lt;div&gt;DATAMARTS&lt;/div&gt;&lt;div&gt;SECTORIALES&lt;br&gt;&lt;/div&gt;" style="text;html=1;strokeColor=none;fillColor=none;align=center;verticalAlign=middle;whiteSpace=wrap;rounded=0;fontStyle=1" parent="1" vertex="1">
          <mxGeometry x="514" y="420" width="120" height="20" as="geometry"/>
        </mxCell>
        <mxCell id="Qoe-SQ4cBOux36FsEiMv-113" style="edgeStyle=orthogonalEdgeStyle;rounded=0;orthogonalLoop=1;jettySize=auto;html=1;entryX=0;entryY=0.5;entryDx=0;entryDy=0;strokeWidth=2;shape=arrow;exitX=1;exitY=0.5;exitDx=0;exitDy=0;strokeColor=#007FFF;" parent="1" source="Qoe-SQ4cBOux36FsEiMv-2" target="Qoe-SQ4cBOux36FsEiMv-105" edge="1">
          <mxGeometry relative="1" as="geometry">
            <mxPoint x="210" y="250" as="sourcePoint"/>
            <mxPoint x="354" y="295" as="targetPoint"/>
          </mxGeometry>
        </mxCell>
        <mxCell id="Qoe-SQ4cBOux36FsEiMv-114" style="edgeStyle=orthogonalEdgeStyle;rounded=0;orthogonalLoop=1;jettySize=auto;html=1;entryX=0;entryY=0.25;entryDx=0;entryDy=0;strokeWidth=2;shape=arrow;exitX=1.012;exitY=0.656;exitDx=0;exitDy=0;strokeColor=#007FFF;exitPerimeter=0;" parent="1" source="Qoe-SQ4cBOux36FsEiMv-2" target="Qoe-SQ4cBOux36FsEiMv-106" edge="1">
          <mxGeometry relative="1" as="geometry">
            <mxPoint x="431" y="315" as="sourcePoint"/>
            <mxPoint x="560" y="250" as="targetPoint"/>
          </mxGeometry>
        </mxCell>
        <mxCell id="Qoe-SQ4cBOux36FsEiMv-115" style="edgeStyle=orthogonalEdgeStyle;rounded=0;orthogonalLoop=1;jettySize=auto;html=1;entryX=0;entryY=0.5;entryDx=0;entryDy=0;strokeWidth=2;shape=arrow;exitX=0.988;exitY=0.778;exitDx=0;exitDy=0;strokeColor=#007FFF;exitPerimeter=0;" parent="1" source="Qoe-SQ4cBOux36FsEiMv-2" target="Qoe-SQ4cBOux36FsEiMv-107" edge="1">
          <mxGeometry relative="1" as="geometry">
            <mxPoint x="432" y="329" as="sourcePoint"/>
            <mxPoint x="560" y="325" as="targetPoint"/>
          </mxGeometry>
        </mxCell>
        <mxCell id="Qoe-SQ4cBOux36FsEiMv-116" value="" style="endArrow=none;html=1;strokeWidth=2;entryX=1;entryY=0.5;entryDx=0;entryDy=0;exitX=0;exitY=0.75;exitDx=0;exitDy=0;strokeColor=#000000;" parent="1" source="Qoe-SQ4cBOux36FsEiMv-109" target="Qoe-SQ4cBOux36FsEiMv-105" edge="1">
          <mxGeometry width="50" height="50" relative="1" as="geometry">
            <mxPoint x="170" y="250" as="sourcePoint"/>
            <mxPoint x="120" y="229.5" as="targetPoint"/>
          </mxGeometry>
        </mxCell>
        <mxCell id="Qoe-SQ4cBOux36FsEiMv-117" value="" style="endArrow=none;html=1;strokeWidth=2;entryX=1;entryY=0.5;entryDx=0;entryDy=0;strokeColor=#000000;" parent="1" source="Qoe-SQ4cBOux36FsEiMv-110" target="Qoe-SQ4cBOux36FsEiMv-106" edge="1">
          <mxGeometry width="50" height="50" relative="1" as="geometry">
            <mxPoint x="630" y="267.5" as="sourcePoint"/>
            <mxPoint x="600" y="268" as="targetPoint"/>
          </mxGeometry>
        </mxCell>
        <mxCell id="Qoe-SQ4cBOux36FsEiMv-118" value="" style="endArrow=none;html=1;strokeWidth=2;entryX=1;entryY=0.5;entryDx=0;entryDy=0;exitX=0;exitY=0.5;exitDx=0;exitDy=0;strokeColor=#000000;" parent="1" source="Qoe-SQ4cBOux36FsEiMv-108" target="Qoe-SQ4cBOux36FsEiMv-107" edge="1">
          <mxGeometry width="50" height="50" relative="1" as="geometry">
            <mxPoint x="640" y="277.5" as="sourcePoint"/>
            <mxPoint x="610" y="278" as="targetPoint"/>
          </mxGeometry>
        </mxCell>
        <mxCell id="Qoe-SQ4cBOux36FsEiMv-119" value="ENFOQUE TRADICIONAL DEL ANÁLISIS DE DATOS: DATAWAREHOUSE + BUSSINESS INTELLIGENCE" style="text;html=1;strokeColor=none;fillColor=none;align=center;verticalAlign=middle;whiteSpace=wrap;rounded=0;fontColor=#000000;fontSize=24;fontStyle=1" parent="1" vertex="1">
          <mxGeometry x="145.5" y="50" width="510" height="20" as="geometry"/>
        </mxCell>
      </root>
    </mxGraphModel>
  </diagram>
</mxfile>
